<?xml version="1.0" standalone="no"?>
<!DOCTYPE svg PUBLIC "-//W3C//DTD SVG 20010904//EN"
 "http://www.w3.org/TR/2001/REC-SVG-20010904/DTD/svg10.dtd">
<svg version="1.0" xmlns="http://www.w3.org/2000/svg"
 width="1259.000000pt" height="1280.000000pt" viewBox="0 0 1259.000000 1280.000000"
 preserveAspectRatio="xMidYMid meet">
<metadata>
Created by potrace 1.15, written by Peter Selinger 2001-2017
</metadata>
<g transform="translate(0.000000,1280.000000) scale(0.100000,-0.100000)"
fill="#000000" stroke="none">
<path d="M9102 10707 c-567 -567 -1032 -1035 -1032 -1039 0 -4 176 -7 390 -5
l390 2 0 -4262 0 -4263 23 0 c12 1 581 -16 1264 -37 684 -20 1244 -35 1247
-32 3 3 13 1952 35 7107 l6 1483 393 -1 c215 0 392 4 392 8 0 8 -2062 2072
-2070 2072 -3 0 -470 -465 -1038 -1033z"/>
<path d="M5297 6753 l-1037 -1038 395 3 395 3 0 -2271 0 -2270 1285 0 1285 0
2 2268 3 2267 393 0 c215 0 392 2 392 5 0 7 -2063 2070 -2070 2070 -3 0 -472
-467 -1043 -1037z"/>
<path d="M1412 4527 c-567 -567 -1032 -1035 -1032 -1040 0 -4 178 -7 395 -7
l395 0 0 -1132 0 -1133 1282 0 1283 0 3 1133 2 1132 398 0 397 0 -1040 1040
c-572 572 -1042 1040 -1045 1040 -3 0 -470 -465 -1038 -1033z"/>
</g>
</svg>
